<svg xmlns="http://www.w3.org/2000/svg" xmlns:xlink="http://www.w3.org/1999/xlink" width="500" zoomAndPan="magnify" viewBox="0 0 375 374.999991" height="500" preserveAspectRatio="xMidYMid meet" version="1.0"><defs><g/></defs><rect x="-37.5" width="450" fill="#ffffff" y="-37.499999" height="449.999989" fill-opacity="1"/><rect x="-37.5" width="450" fill="#ffffff" y="-37.499999" height="449.999989" fill-opacity="1"/><path stroke-linecap="butt" transform="matrix(0.75, 0, 0, 0.75, 25.477973, 156.74999)" fill="none" stroke-linejoin="miter" d="M 19.52937 55.562517 C 17.62312 55.562517 16.175203 54.906267 15.180411 53.604184 C 14.196036 52.291684 13.701245 50.125017 13.701245 47.098975 L 13.701245 27.901057 L 10.123119 27.901057 L 10.123119 27.000015 L 18.513745 19.604182 L 19.419995 19.604182 L 19.419995 27.000015 L 28.097079 27.000015 L 27.867912 27.901057 L 19.419995 27.901057 L 19.419995 47.166683 C 19.419995 48.880225 19.732495 50.135434 20.362703 50.937517 C 20.99812 51.7396 21.93562 52.140642 23.164787 52.140642 C 23.800204 52.140642 24.56062 51.963559 25.43562 51.609392 C 26.31062 51.255225 27.21687 50.494809 28.154371 49.338559 L 28.716871 49.901059 C 27.222079 51.625017 25.732495 53.000017 24.258537 54.031267 C 22.77937 55.052101 21.206453 55.562517 19.52937 55.562517 Z M 46.466872 55.562517 C 44.899163 55.562517 43.341872 55.281267 41.789788 54.723976 C 40.242913 54.161476 38.810621 53.317726 37.498121 52.197934 C 36.196038 51.078142 35.154371 49.6771 34.367913 48.000017 C 33.586663 46.322933 33.190829 44.343767 33.190829 42.067725 C 33.190829 39.6771 33.612704 37.531266 34.451246 35.625016 C 35.289788 33.723974 36.419996 32.098974 37.841871 30.760432 C 39.263746 29.411474 40.841871 28.380224 42.571038 27.671891 C 44.310622 26.958349 46.091872 26.604182 47.914789 26.604182 C 50.461664 26.604182 52.586664 27.109391 54.300206 28.119807 C 56.024164 29.130224 57.321039 30.406266 58.196039 31.937516 C 59.071039 33.458349 59.508539 35.041683 59.508539 36.692724 L 38.289788 36.692724 C 38.25333 36.984391 38.227288 37.281266 38.211663 37.58335 C 38.19083 37.880225 38.180413 38.182308 38.180413 38.484391 C 38.180413 40.906266 38.654371 43.072933 39.602288 44.979183 C 40.550205 46.885433 41.893955 48.369809 43.623122 49.437517 C 45.362705 50.494809 47.40958 51.02085 49.763747 51.02085 C 51.857497 51.02085 53.711664 50.609392 55.315831 49.791684 C 56.919997 48.968767 58.300206 47.906267 59.456456 46.604183 L 59.961664 47.166683 C 59.107498 48.468767 58.039789 49.765642 56.763747 51.062517 C 55.498122 52.348975 54.003331 53.416684 52.279372 54.276059 C 50.56583 55.130226 48.62833 55.562517 46.466872 55.562517 Z M 38.34708 35.901058 L 53.852289 35.901058 C 53.633539 34.369808 53.159581 32.979183 52.430414 31.729182 C 51.701247 30.479182 50.800205 29.484391 49.737705 28.734391 C 48.680414 27.989599 47.492913 27.614599 46.180413 27.614599 C 44.612705 27.578141 43.28458 27.953141 42.201246 28.734391 C 41.12833 29.520849 40.268955 30.552099 39.633538 31.828141 C 38.992913 33.093766 38.56583 34.453141 38.34708 35.901058 Z M 65.451248 55.000017 L 65.451248 54.218767 C 66.38354 53.921892 66.987706 53.296892 67.268956 52.348975 C 67.555415 51.390642 67.69604 49.906267 67.69604 47.890642 L 67.69604 35.010433 C 67.69604 33.369808 67.498123 32.291683 67.107498 31.770849 C 66.716873 31.244807 66.16479 30.828141 65.451248 30.526057 L 65.451248 29.750016 L 72.836665 26.494807 L 73.393957 26.942724 L 73.393957 33.723974 C 74.263749 31.703141 75.623124 30.057307 77.482499 28.791682 C 78.529374 28.041682 79.607499 27.489599 80.711666 27.135432 C 81.810624 26.781265 83.034582 26.604182 84.373124 26.604182 C 85.347083 26.604182 86.185624 26.73439 86.888749 27.000015 C 87.602291 27.265641 87.956458 27.692724 87.956458 28.286474 C 87.956458 28.692724 87.815833 29.192724 87.534583 29.776057 C 87.258541 30.348974 86.841874 30.848974 86.274166 31.281266 C 85.716874 31.708349 85.013749 31.921891 84.154374 31.921891 C 83.373124 31.921891 82.409582 31.786474 81.268957 31.510432 C 80.133541 31.229182 78.664791 30.807307 76.867915 30.255224 C 76.159582 30.843766 75.419999 31.718766 74.654374 32.880224 C 73.899165 34.036474 73.47729 35.328141 73.393957 36.750016 L 73.393957 47.890642 C 73.393957 49.906267 73.534582 51.390642 73.82104 52.348975 C 74.10229 53.296892 74.706457 53.921892 75.638749 54.218767 L 75.638749 55.000017 Z M 93.227291 55.000017 L 93.227291 54.218767 C 94.159583 53.921892 94.76375 53.296892 95.045 52.348975 C 95.331458 51.390642 95.472083 49.906267 95.472083 47.890642 L 95.472083 35.010433 C 95.472083 33.369808 95.274167 32.291683 94.883542 31.770849 C 94.492917 31.244807 93.940833 30.828141 93.227291 30.526057 L 93.227291 29.750016 L 100.612709 26.494807 L 101.17 26.942724 L 101.17 31.645849 C 102.70125 30.380224 104.456459 29.223974 106.435626 28.177099 C 108.414792 27.125016 110.487709 26.604182 112.654376 26.604182 C 114.633543 26.604182 116.258543 27.005224 117.524168 27.807307 C 118.80021 28.609391 119.696043 29.906266 120.216877 31.703141 C 121.748127 30.437516 123.513752 29.270849 125.508544 28.203141 C 127.503335 27.135432 129.602294 26.604182 131.810627 26.604182 C 134.378336 26.604182 136.367919 27.322932 137.768961 28.765641 C 139.175211 30.203141 139.878336 32.562516 139.878336 35.843766 L 139.878336 47.890642 C 139.878336 49.906267 140.013753 51.390642 140.284586 52.348975 C 140.571045 53.296892 141.175211 53.921892 142.107503 54.218767 L 142.107503 55.000017 L 131.920002 55.000017 L 131.920002 54.218767 C 132.847086 53.921892 133.456461 53.296892 133.737711 52.348975 C 134.018961 51.390642 134.159586 49.906267 134.159586 47.890642 L 134.159586 36.859391 C 134.159586 34.312516 133.722086 32.343766 132.836669 30.953141 C 131.961669 29.546891 130.477294 28.843766 128.39396 28.843766 C 127.086669 28.843766 125.80021 29.156266 124.524169 29.776057 C 123.258543 30.385432 121.873127 31.286474 120.378335 32.484391 C 120.607502 33.494808 120.722085 34.614599 120.722085 35.843766 L 120.722085 47.890642 C 120.722085 49.906267 120.857502 51.390642 121.133543 52.348975 C 121.414793 53.296892 122.024168 53.921892 122.966877 54.218767 L 122.966877 55.000017 L 112.763751 55.000017 L 112.763751 54.218767 C 113.70646 53.921892 114.310626 53.296892 114.58146 52.348975 C 114.867918 51.390642 115.008543 49.906267 115.008543 47.890642 L 115.008543 36.859391 C 115.008543 34.312516 114.571043 32.343766 113.696043 30.953141 C 112.821043 29.546891 111.336668 28.843766 109.237709 28.843766 C 107.935626 28.843766 106.643959 29.166682 105.367917 29.802099 C 104.102292 30.432307 102.70125 31.364599 101.17 32.604183 L 101.17 47.890642 C 101.17 49.906267 101.310625 51.390642 101.597084 52.348975 C 101.878334 53.296892 102.4825 53.921892 103.414792 54.218767 L 103.414792 55.000017 Z M 157.847087 55.453142 C 155.795004 55.453142 153.873129 55.192726 152.076254 54.671892 C 150.289795 54.140642 148.852295 53.520851 147.768962 52.812517 L 147.206462 45.484392 L 147.768962 45.359392 C 148.96167 48.0521 150.539795 50.244809 152.498129 51.953142 C 154.456462 53.645851 156.690837 54.510434 159.196046 54.546892 C 160.946046 54.583351 162.331463 54.109392 163.352296 53.125017 C 164.383546 52.135434 164.899171 51.005225 164.899171 49.734392 C 164.899171 47.942725 164.216879 46.593767 162.847088 45.703142 C 161.492921 44.807308 159.597088 43.9896 157.175212 43.2396 C 155.232504 42.640642 153.545004 42.015641 152.102295 41.369808 C 150.670004 40.713558 149.571045 39.875016 148.80542 38.854183 C 148.039795 37.822933 147.659587 36.463558 147.659587 34.781266 C 147.659587 33.364599 148.039795 32.036474 148.80542 30.786474 C 149.571045 29.531266 150.758545 28.515641 152.362712 27.750016 C 153.966879 26.98439 156.034587 26.604182 158.571046 26.604182 C 160.180421 26.604182 161.774171 26.73439 163.341879 27.000015 C 164.909588 27.265641 166.159588 27.598974 167.086671 28.010432 L 167.37313 34.161474 L 166.690838 34.270849 C 165.758546 32.296891 164.461671 30.656266 162.795004 29.348974 C 161.133546 28.046891 159.279379 27.395849 157.227296 27.395849 C 155.477296 27.395849 154.071045 27.807307 153.003337 28.625016 C 151.940837 29.447932 151.404379 30.453141 151.404379 31.645849 C 151.404379 33.213558 152.08667 34.416683 153.440837 35.255224 C 154.810629 36.093766 156.748129 36.947933 159.253338 37.812516 C 160.737713 38.296891 162.201254 38.838558 163.643963 39.442725 C 165.081463 40.031266 166.274171 40.8646 167.222088 41.9271 C 168.180421 42.984392 168.659588 44.468767 168.659588 46.375017 C 168.659588 47.796892 168.321046 49.20835 167.649171 50.609392 C 166.972088 52.005225 165.852296 53.161476 164.284588 54.083351 C 162.716879 54.994809 160.571046 55.453142 157.847087 55.453142 Z M 157.847087 55.453142 " stroke="#f0f0f0" stroke-width="1.05" stroke-opacity="1" stroke-miterlimit="4"/><path stroke-linecap="butt" transform="matrix(0.75, 0, 0, 0.75, 25.477973, 156.74999)" fill="none" stroke-linejoin="miter" d="M 240.357509 55.453142 C 238.305426 55.453142 236.383551 55.192726 234.586676 54.671892 C 232.800217 54.140642 231.367926 53.520851 230.279384 52.812517 L 229.722092 45.484392 L 230.279384 45.359392 C 231.477301 48.0521 233.050217 50.244809 235.013759 51.953142 C 236.972093 53.645851 239.206468 54.510434 241.711676 54.546892 C 243.461676 54.583351 244.847093 54.109392 245.867927 53.125017 C 246.899177 52.135434 247.409593 51.005225 247.409593 49.734392 C 247.409593 47.942725 246.727302 46.593767 245.362718 45.703142 C 244.003343 44.807308 242.112718 43.9896 239.685634 43.2396 C 237.748134 42.640642 236.055426 42.015641 234.612717 41.369808 C 233.185634 40.713558 232.086676 39.875016 231.321051 38.854183 C 230.555426 37.822933 230.170009 36.463558 230.170009 34.781266 C 230.170009 33.364599 230.555426 32.036474 231.321051 30.786474 C 232.086676 29.531266 233.268967 28.515641 234.873134 27.750016 C 236.477301 26.98439 238.550218 26.604182 241.081468 26.604182 C 242.696051 26.604182 244.284593 26.73439 245.852302 27.000015 C 247.42001 27.265641 248.67001 27.598974 249.597093 28.010432 L 249.88876 34.161474 L 249.20126 34.270849 C 248.274177 32.296891 246.972093 30.656266 245.305426 29.348974 C 243.649176 28.046891 241.79501 27.395849 239.742926 27.395849 C 237.992926 27.395849 236.581468 27.807307 235.518968 28.625016 C 234.451259 29.447932 233.920009 30.453141 233.920009 31.645849 C 233.920009 33.213558 234.597092 34.416683 235.956468 35.255224 C 237.321051 36.093766 239.258551 36.947933 241.76376 37.812516 C 243.253343 38.296891 244.711676 38.838558 246.154385 39.442725 C 247.591885 40.031266 248.789802 40.8646 249.737718 41.9271 C 250.690844 42.984392 251.17001 44.468767 251.17001 46.375017 C 251.17001 47.796892 250.836677 49.20835 250.159593 50.609392 C 249.487718 52.005225 248.362718 53.161476 246.79501 54.083351 C 245.227301 54.994809 243.081468 55.453142 240.357509 55.453142 Z M 270.602303 55.562517 C 269.034595 55.562517 267.477303 55.281267 265.930428 54.723976 C 264.378344 54.161476 262.946053 53.317726 261.633553 52.197934 C 260.331469 51.078142 259.289802 49.6771 258.503344 48.000017 C 257.722094 46.322933 257.326261 44.343767 257.326261 42.067725 C 257.326261 39.6771 257.748136 37.531266 258.586677 35.625016 C 259.425219 33.723974 260.555427 32.098974 261.977303 30.760432 C 263.399178 29.411474 264.977303 28.380224 266.70647 27.671891 C 268.446053 26.958349 270.232511 26.604182 272.055428 26.604182 C 274.597095 26.604182 276.722095 27.109391 278.435637 28.119807 C 280.159595 29.130224 281.461679 30.406266 282.336679 31.937516 C 283.211679 33.458349 283.649179 35.041683 283.649179 36.692724 L 262.430428 36.692724 C 262.393969 36.984391 262.362719 37.281266 262.347094 37.58335 C 262.326261 37.880225 262.321053 38.182308 262.321053 38.484391 C 262.321053 40.906266 262.795011 43.072933 263.742928 44.979183 C 264.690844 46.885433 266.029386 48.369809 267.758553 49.437517 C 269.503345 50.494809 271.545012 51.02085 273.899178 51.02085 C 275.992929 51.02085 277.847095 50.609392 279.451262 49.791684 C 281.055429 48.968767 282.435637 47.906267 283.591887 46.604183 L 284.097096 47.166683 C 283.242929 48.468767 282.175221 49.765642 280.899179 51.062517 C 279.633554 52.348975 278.138762 53.416684 276.414804 54.276059 C 274.701262 55.130226 272.763762 55.562517 270.602303 55.562517 Z M 262.482511 35.901058 L 277.98772 35.901058 C 277.76897 34.369808 277.295012 32.979183 276.565845 31.729182 C 275.836678 30.479182 274.935637 29.484391 273.873137 28.734391 C 272.815845 27.989599 271.628345 27.614599 270.315845 27.614599 C 268.748136 27.578141 267.42522 27.953141 266.336678 28.734391 C 265.263761 29.520849 264.404386 30.552099 263.768969 31.828141 C 263.128344 33.093766 262.701261 34.453141 262.482511 35.901058 Z M 289.586679 55.000017 L 289.586679 54.218767 C 290.518971 53.921892 291.123138 53.296892 291.404388 52.348975 C 291.690846 51.390642 291.831471 49.906267 291.831471 47.890642 L 291.831471 35.010433 C 291.831471 33.369808 291.633555 32.291683 291.24293 31.770849 C 290.852304 31.244807 290.300221 30.828141 289.586679 30.526057 L 289.586679 29.750016 L 296.972097 26.494807 L 297.529388 26.942724 L 297.529388 33.723974 C 298.39918 31.703141 299.758555 30.057307 301.61793 28.791682 C 302.670014 28.041682 303.74293 27.489599 304.847097 27.135432 C 305.951264 26.781265 307.170014 26.604182 308.508556 26.604182 C 309.487722 26.604182 310.326264 26.73439 311.024181 27.000015 C 311.737723 27.265641 312.091889 27.692724 312.091889 28.286474 C 312.091889 28.692724 311.951264 29.192724 311.670014 29.776057 C 311.393972 30.348974 310.977306 30.848974 310.409597 31.281266 C 309.852306 31.708349 309.149181 31.921891 308.289806 31.921891 C 307.508556 31.921891 306.545014 31.786474 305.404389 31.510432 C 304.268972 31.229182 302.800222 30.807307 301.003347 30.255224 C 300.295013 30.843766 299.55543 31.718766 298.789805 32.880224 C 298.034597 34.036474 297.612722 35.328141 297.529388 36.750016 L 297.529388 47.890642 C 297.529388 49.906267 297.675222 51.390642 297.956472 52.348975 C 298.237722 53.296892 298.841888 53.921892 299.77418 54.218767 L 299.77418 55.000017 Z M 319.102306 33.546891 C 318.315848 31.682307 317.612723 30.317724 316.992931 29.458349 C 316.373139 28.604182 315.753348 28.041682 315.123139 27.781266 L 315.123139 27.000015 L 324.690848 27.000015 L 324.690848 27.781266 C 323.763765 28.078141 323.414807 28.651057 323.65439 29.489599 C 323.899182 30.328141 324.430432 31.682307 325.253348 33.546891 L 331.925224 49.286475 L 337.966891 33.656266 C 338.680433 31.760432 338.946058 30.369807 338.774183 29.473974 C 338.612724 28.572932 338.039808 28.005224 337.065849 27.781266 L 337.065849 27.000015 L 343.06585 27.000015 L 343.06585 27.781266 C 342.248141 28.041682 341.529391 28.619807 340.909599 29.500016 C 340.289808 30.375016 339.607516 31.760432 338.867933 33.656266 L 330.696057 55.000017 L 328.055432 55.000017 Z M 346.654391 55.000017 L 346.654391 54.218767 C 347.581475 53.921892 348.19085 53.296892 348.4721 52.348975 C 348.75335 51.390642 348.893975 49.906267 348.893975 47.890642 L 348.893975 35.010433 C 348.893975 33.369808 348.701267 32.291683 348.305433 31.770849 C 347.914808 31.244807 347.362725 30.828141 346.654391 30.526057 L 346.654391 29.750016 L 354.0346 26.494807 L 354.5971 26.942724 L 354.5971 47.890642 C 354.5971 49.906267 354.737725 51.390642 355.018975 52.348975 C 355.300225 53.296892 355.9096 53.921892 356.836684 54.218767 L 356.836684 55.000017 Z M 347.5971 20.781265 C 347.5971 19.70314 347.9721 18.791682 348.716892 18.04689 C 349.466892 17.29689 350.362725 16.92189 351.4096 16.92189 C 352.529392 16.92189 353.44085 17.29689 354.143975 18.04689 C 354.857517 18.791682 355.211684 19.70314 355.211684 20.781265 C 355.211684 21.82814 354.8471 22.723974 354.117934 23.473974 C 353.399184 24.218765 352.492934 24.593765 351.4096 24.593765 C 350.362725 24.593765 349.466892 24.218765 348.716892 23.473974 C 347.9721 22.723974 347.5971 21.82814 347.5971 20.781265 Z M 376.050227 55.562517 C 373.774185 55.562517 371.612726 55.041684 369.57106 54.000017 C 367.53981 52.953142 365.899184 51.421892 364.649184 49.406267 C 363.399184 47.385434 362.774184 44.937517 362.774184 42.067725 C 362.774184 39.713558 363.185643 37.588558 364.008559 35.682308 C 364.826268 33.776058 365.956476 32.156266 367.399185 30.812516 C 368.836685 29.463557 370.461685 28.427099 372.263768 27.697932 C 374.076268 26.968765 375.956477 26.604182 377.899185 26.604182 C 380.888769 26.604182 383.310644 26.942724 385.170019 27.614599 C 387.039811 28.291682 387.972103 29.020849 387.972103 29.802099 C 387.972103 30.359391 387.768978 30.916682 387.357519 31.484391 C 386.946061 32.041682 386.451269 32.505224 385.867936 32.880224 C 385.295019 33.250016 384.727311 33.437516 384.175227 33.437516 C 383.388769 33.437516 382.331477 32.973974 381.003352 32.046891 C 379.680435 31.104182 377.935644 29.609391 375.763768 27.562516 C 374.159602 27.786474 372.753352 28.437516 371.53981 29.500016 C 370.326268 30.557307 369.393976 31.869807 368.737726 33.437516 C 368.091893 35.005224 367.768976 36.687516 367.768976 38.484391 C 367.768976 40.906266 368.242935 43.072933 369.190851 44.979183 C 370.138768 46.885433 371.47731 48.369809 373.206477 49.437517 C 374.951268 50.494809 376.992935 51.02085 379.347102 51.02085 C 381.440852 51.02085 383.295019 50.609392 384.899186 49.791684 C 386.503352 48.968767 387.883561 47.906267 389.039811 46.604183 L 389.545019 47.166683 C 388.690853 48.468767 387.623144 49.765642 386.347102 51.062517 C 385.081477 52.348975 383.586686 53.416684 381.862727 54.276059 C 380.149185 55.130226 378.211685 55.562517 376.050227 55.562517 Z M 408.138771 55.562517 C 406.571062 55.562517 405.01377 55.281267 403.461687 54.723976 C 401.914812 54.161476 400.48252 53.317726 399.17002 52.197934 C 397.867937 51.078142 396.82627 49.6771 396.039811 48.000017 C 395.258561 46.322933 394.862728 44.343767 394.862728 42.067725 C 394.862728 39.6771 395.284603 37.531266 396.123145 35.625016 C 396.961686 33.723974 398.091895 32.098974 399.51377 30.760432 C 400.935645 29.411474 402.51377 28.380224 404.242937 27.671891 C 405.98252 26.958349 407.768979 26.604182 409.586687 26.604182 C 412.133562 26.604182 414.258563 27.109391 415.972104 28.119807 C 417.696063 29.130224 418.992938 30.406266 419.867938 31.937516 C 420.742938 33.458349 421.180438 35.041683 421.180438 36.692724 L 399.961687 36.692724 C 399.925228 36.984391 399.899187 37.281266 399.883562 37.58335 C 399.862728 37.880225 399.85752 38.182308 399.85752 38.484391 C 399.85752 40.906266 400.331478 43.072933 401.274187 44.979183 C 402.222103 46.885433 403.565854 48.369809 405.29502 49.437517 C 407.034604 50.494809 409.081479 51.02085 411.435646 51.02085 C 413.529396 51.02085 415.383563 50.609392 416.987729 49.791684 C 418.591896 48.968767 419.972105 47.906267 421.128355 46.604183 L 421.633563 47.166683 C 420.779396 48.468767 419.711688 49.765642 418.435646 51.062517 C 417.170021 52.348975 415.675229 53.416684 413.951271 54.276059 C 412.237729 55.130226 410.300229 55.562517 408.138771 55.562517 Z M 400.018978 35.901058 L 415.524188 35.901058 C 415.305438 34.369808 414.831479 32.979183 414.102313 31.729182 C 413.373146 30.479182 412.472104 29.484391 411.409604 28.734391 C 410.352312 27.989599 409.164812 27.614599 407.852312 27.614599 C 406.284604 27.578141 404.956479 27.953141 403.873145 28.734391 C 402.800228 29.520849 401.940853 30.552099 401.305437 31.828141 C 400.664812 33.093766 400.237728 34.453141 400.018978 35.901058 Z M 400.018978 35.901058 " stroke="#f0f0f0" stroke-width="1.05" stroke-opacity="1" stroke-miterlimit="4"/><g fill="#f0f0f0" fill-opacity="1"><g transform="translate(32.227973, 197.999987)"><g><path d="M 7.890625 0.421875 C 6.460938 0.421875 5.378906 -0.0664062 4.640625 -1.046875 C 3.898438 -2.023438 3.53125 -3.648438 3.53125 -5.921875 L 3.53125 -20.328125 L 0.84375 -20.328125 L 0.84375 -21 L 7.140625 -26.546875 L 7.8125 -26.546875 L 7.8125 -21 L 14.328125 -21 L 14.15625 -20.328125 L 7.8125 -20.328125 L 7.8125 -5.875 C 7.8125 -4.59375 8.046875 -3.648438 8.515625 -3.046875 C 8.992188 -2.441406 9.695312 -2.140625 10.625 -2.140625 C 11.101562 -2.140625 11.671875 -2.269531 12.328125 -2.53125 C 12.984375 -2.800781 13.660156 -3.367188 14.359375 -4.234375 L 14.78125 -3.828125 C 13.664062 -2.535156 12.550781 -1.503906 11.4375 -0.734375 C 10.332031 0.0351562 9.148438 0.421875 7.890625 0.421875 Z M 7.890625 0.421875 "/></g></g></g><g fill="#f0f0f0" fill-opacity="1"><g transform="translate(49.069976, 197.999987)"><g><path d="M 11.25 0.421875 C 10.070312 0.421875 8.898438 0.210938 7.734375 -0.203125 C 6.578125 -0.628906 5.507812 -1.257812 4.53125 -2.09375 C 3.550781 -2.9375 2.765625 -3.988281 2.171875 -5.25 C 1.585938 -6.507812 1.296875 -7.992188 1.296875 -9.703125 C 1.296875 -11.492188 1.609375 -13.101562 2.234375 -14.53125 C 2.867188 -15.957031 3.71875 -17.175781 4.78125 -18.1875 C 5.851562 -19.195312 7.039062 -19.96875 8.34375 -20.5 C 9.644531 -21.03125 10.976562 -21.296875 12.34375 -21.296875 C 14.25 -21.296875 15.84375 -20.914062 17.125 -20.15625 C 18.414062 -19.40625 19.390625 -18.453125 20.046875 -17.296875 C 20.710938 -16.148438 21.046875 -14.960938 21.046875 -13.734375 L 5.125 -13.734375 C 5.09375 -13.503906 5.070312 -13.273438 5.0625 -13.046875 C 5.050781 -12.828125 5.046875 -12.609375 5.046875 -12.390625 C 5.046875 -10.566406 5.398438 -8.941406 6.109375 -7.515625 C 6.828125 -6.085938 7.835938 -4.972656 9.140625 -4.171875 C 10.441406 -3.378906 11.972656 -2.984375 13.734375 -2.984375 C 15.304688 -2.984375 16.691406 -3.289062 17.890625 -3.90625 C 19.097656 -4.519531 20.132812 -5.316406 21 -6.296875 L 21.375 -5.875 C 20.726562 -4.894531 19.929688 -3.921875 18.984375 -2.953125 C 18.035156 -1.992188 16.914062 -1.191406 15.625 -0.546875 C 14.332031 0.0976562 12.875 0.421875 11.25 0.421875 Z M 5.171875 -14.328125 L 16.796875 -14.328125 C 16.628906 -15.472656 16.269531 -16.515625 15.71875 -17.453125 C 15.175781 -18.390625 14.503906 -19.132812 13.703125 -19.6875 C 12.910156 -20.25 12.023438 -20.53125 11.046875 -20.53125 C 9.867188 -20.5625 8.875 -20.28125 8.0625 -19.6875 C 7.25 -19.101562 6.601562 -18.332031 6.125 -17.375 C 5.65625 -16.425781 5.335938 -15.410156 5.171875 -14.328125 Z M 5.171875 -14.328125 "/></g></g></g><g fill="#f0f0f0" fill-opacity="1"><g transform="translate(73.387968, 197.999987)"><g><path d="M 1.171875 0 L 1.171875 -0.59375 C 1.867188 -0.8125 2.320312 -1.273438 2.53125 -1.984375 C 2.75 -2.703125 2.859375 -3.816406 2.859375 -5.328125 L 2.859375 -15 C 2.859375 -16.226562 2.707031 -17.035156 2.40625 -17.421875 C 2.113281 -17.816406 1.703125 -18.128906 1.171875 -18.359375 L 1.171875 -18.9375 L 6.71875 -21.375 L 7.140625 -21.046875 L 7.140625 -15.953125 C 7.785156 -17.472656 8.804688 -18.707031 10.203125 -19.65625 C 10.984375 -20.21875 11.785156 -20.628906 12.609375 -20.890625 C 13.441406 -21.160156 14.363281 -21.296875 15.375 -21.296875 C 16.101562 -21.296875 16.734375 -21.195312 17.265625 -21 C 17.796875 -20.800781 18.0625 -20.476562 18.0625 -20.03125 C 18.0625 -19.726562 17.957031 -19.359375 17.75 -18.921875 C 17.539062 -18.484375 17.222656 -18.101562 16.796875 -17.78125 C 16.378906 -17.457031 15.847656 -17.296875 15.203125 -17.296875 C 14.617188 -17.296875 13.898438 -17.398438 13.046875 -17.609375 C 12.191406 -17.828125 11.09375 -18.144531 9.75 -18.5625 C 9.21875 -18.113281 8.660156 -17.453125 8.078125 -16.578125 C 7.503906 -15.710938 7.191406 -14.75 7.140625 -13.6875 L 7.140625 -5.328125 C 7.140625 -3.816406 7.242188 -2.703125 7.453125 -1.984375 C 7.660156 -1.273438 8.113281 -0.8125 8.8125 -0.59375 L 8.8125 0 Z M 1.171875 0 "/></g></g></g><g fill="#f0f0f0" fill-opacity="1"><g transform="translate(94.219961, 197.999987)"><g><path d="M 1.171875 0 L 1.171875 -0.59375 C 1.867188 -0.8125 2.320312 -1.273438 2.53125 -1.984375 C 2.75 -2.703125 2.859375 -3.816406 2.859375 -5.328125 L 2.859375 -15 C 2.859375 -16.226562 2.707031 -17.035156 2.40625 -17.421875 C 2.113281 -17.816406 1.703125 -18.128906 1.171875 -18.359375 L 1.171875 -18.9375 L 6.71875 -21.375 L 7.140625 -21.046875 L 7.140625 -17.515625 C 8.285156 -18.460938 9.597656 -19.328125 11.078125 -20.109375 C 12.566406 -20.898438 14.125 -21.296875 15.75 -21.296875 C 17.226562 -21.296875 18.441406 -20.992188 19.390625 -20.390625 C 20.347656 -19.785156 21.023438 -18.8125 21.421875 -17.46875 C 22.566406 -18.425781 23.890625 -19.300781 25.390625 -20.09375 C 26.890625 -20.894531 28.460938 -21.296875 30.109375 -21.296875 C 32.046875 -21.296875 33.535156 -20.753906 34.578125 -19.671875 C 35.628906 -18.597656 36.15625 -16.828125 36.15625 -14.359375 L 36.15625 -5.328125 C 36.15625 -3.816406 36.257812 -2.703125 36.46875 -1.984375 C 36.6875 -1.273438 37.144531 -0.8125 37.84375 -0.59375 L 37.84375 0 L 30.203125 0 L 30.203125 -0.59375 C 30.898438 -0.8125 31.351562 -1.273438 31.5625 -1.984375 C 31.769531 -2.703125 31.875 -3.816406 31.875 -5.328125 L 31.875 -13.609375 C 31.875 -15.515625 31.546875 -16.988281 30.890625 -18.03125 C 30.234375 -19.082031 29.117188 -19.609375 27.546875 -19.609375 C 26.566406 -19.609375 25.597656 -19.378906 24.640625 -18.921875 C 23.691406 -18.460938 22.660156 -17.785156 21.546875 -16.890625 C 21.710938 -16.128906 21.796875 -15.285156 21.796875 -14.359375 L 21.796875 -5.328125 C 21.796875 -3.816406 21.898438 -2.703125 22.109375 -1.984375 C 22.316406 -1.273438 22.773438 -0.8125 23.484375 -0.59375 L 23.484375 0 L 15.828125 0 L 15.828125 -0.59375 C 16.535156 -0.8125 16.992188 -1.273438 17.203125 -1.984375 C 17.410156 -2.703125 17.515625 -3.816406 17.515625 -5.328125 L 17.515625 -13.609375 C 17.515625 -15.515625 17.1875 -16.988281 16.53125 -18.03125 C 15.875 -19.082031 14.757812 -19.609375 13.1875 -19.609375 C 12.207031 -19.609375 11.238281 -19.367188 10.28125 -18.890625 C 9.332031 -18.421875 8.285156 -17.722656 7.140625 -16.796875 L 7.140625 -5.328125 C 7.140625 -3.816406 7.242188 -2.703125 7.453125 -1.984375 C 7.660156 -1.273438 8.113281 -0.8125 8.8125 -0.59375 L 8.8125 0 Z M 1.171875 0 "/></g></g></g><g fill="#f0f0f0" fill-opacity="1"><g transform="translate(134.581954, 197.999987)"><g><path d="M 9.28125 0.34375 C 7.738281 0.34375 6.296875 0.144531 4.953125 -0.25 C 3.609375 -0.644531 2.53125 -1.109375 1.71875 -1.640625 L 1.296875 -7.140625 L 1.71875 -7.21875 C 2.613281 -5.207031 3.796875 -3.5625 5.265625 -2.28125 C 6.734375 -1.007812 8.410156 -0.363281 10.296875 -0.34375 C 11.609375 -0.3125 12.648438 -0.664062 13.421875 -1.40625 C 14.191406 -2.144531 14.578125 -2.992188 14.578125 -3.953125 C 14.578125 -5.296875 14.066406 -6.300781 13.046875 -6.96875 C 12.023438 -7.644531 10.601562 -8.257812 8.78125 -8.8125 C 7.320312 -9.257812 6.050781 -9.726562 4.96875 -10.21875 C 3.894531 -10.71875 3.070312 -11.347656 2.5 -12.109375 C 1.925781 -12.878906 1.640625 -13.894531 1.640625 -15.15625 C 1.640625 -16.226562 1.925781 -17.234375 2.5 -18.171875 C 3.070312 -19.109375 3.957031 -19.863281 5.15625 -20.4375 C 6.363281 -21.007812 7.921875 -21.296875 9.828125 -21.296875 C 11.035156 -21.296875 12.222656 -21.195312 13.390625 -21 C 14.566406 -20.800781 15.507812 -20.550781 16.21875 -20.25 L 16.421875 -15.625 L 15.921875 -15.546875 C 15.222656 -17.023438 14.25 -18.253906 13 -19.234375 C 11.75 -20.210938 10.351562 -20.703125 8.8125 -20.703125 C 7.5 -20.703125 6.441406 -20.394531 5.640625 -19.78125 C 4.847656 -19.164062 4.453125 -18.410156 4.453125 -17.515625 C 4.453125 -16.335938 4.960938 -15.429688 5.984375 -14.796875 C 7.003906 -14.171875 8.453125 -13.535156 10.328125 -12.890625 C 11.453125 -12.523438 12.550781 -12.117188 13.625 -11.671875 C 14.707031 -11.222656 15.601562 -10.597656 16.3125 -9.796875 C 17.03125 -9.003906 17.390625 -7.894531 17.390625 -6.46875 C 17.390625 -5.40625 17.132812 -4.347656 16.625 -3.296875 C 16.125 -2.242188 15.285156 -1.375 14.109375 -0.6875 C 12.929688 0 11.320312 0.34375 9.28125 0.34375 Z M 9.28125 0.34375 "/></g></g></g><g fill="#f0f0f0" fill-opacity="1"><g transform="translate(196.466247, 197.999987)"><g><path d="M 9.28125 0.34375 C 7.738281 0.34375 6.296875 0.144531 4.953125 -0.25 C 3.609375 -0.644531 2.53125 -1.109375 1.71875 -1.640625 L 1.296875 -7.140625 L 1.71875 -7.21875 C 2.613281 -5.207031 3.796875 -3.5625 5.265625 -2.28125 C 6.734375 -1.007812 8.410156 -0.363281 10.296875 -0.34375 C 11.609375 -0.3125 12.648438 -0.664062 13.421875 -1.40625 C 14.191406 -2.144531 14.578125 -2.992188 14.578125 -3.953125 C 14.578125 -5.296875 14.066406 -6.300781 13.046875 -6.96875 C 12.023438 -7.644531 10.601562 -8.257812 8.78125 -8.8125 C 7.320312 -9.257812 6.050781 -9.726562 4.96875 -10.21875 C 3.894531 -10.71875 3.070312 -11.347656 2.5 -12.109375 C 1.925781 -12.878906 1.640625 -13.894531 1.640625 -15.15625 C 1.640625 -16.226562 1.925781 -17.234375 2.5 -18.171875 C 3.070312 -19.109375 3.957031 -19.863281 5.15625 -20.4375 C 6.363281 -21.007812 7.921875 -21.296875 9.828125 -21.296875 C 11.035156 -21.296875 12.222656 -21.195312 13.390625 -21 C 14.566406 -20.800781 15.507812 -20.550781 16.21875 -20.25 L 16.421875 -15.625 L 15.921875 -15.546875 C 15.222656 -17.023438 14.25 -18.253906 13 -19.234375 C 11.75 -20.210938 10.351562 -20.703125 8.8125 -20.703125 C 7.5 -20.703125 6.441406 -20.394531 5.640625 -19.78125 C 4.847656 -19.164062 4.453125 -18.410156 4.453125 -17.515625 C 4.453125 -16.335938 4.960938 -15.429688 5.984375 -14.796875 C 7.003906 -14.171875 8.453125 -13.535156 10.328125 -12.890625 C 11.453125 -12.523438 12.550781 -12.117188 13.625 -11.671875 C 14.707031 -11.222656 15.601562 -10.597656 16.3125 -9.796875 C 17.03125 -9.003906 17.390625 -7.894531 17.390625 -6.46875 C 17.390625 -5.40625 17.132812 -4.347656 16.625 -3.296875 C 16.125 -2.242188 15.285156 -1.375 14.109375 -0.6875 C 12.929688 0 11.320312 0.34375 9.28125 0.34375 Z M 9.28125 0.34375 "/></g></g></g><g fill="#f0f0f0" fill-opacity="1"><g transform="translate(217.172244, 197.999987)"><g><path d="M 11.25 0.421875 C 10.070312 0.421875 8.898438 0.210938 7.734375 -0.203125 C 6.578125 -0.628906 5.507812 -1.257812 4.53125 -2.09375 C 3.550781 -2.9375 2.765625 -3.988281 2.171875 -5.25 C 1.585938 -6.507812 1.296875 -7.992188 1.296875 -9.703125 C 1.296875 -11.492188 1.609375 -13.101562 2.234375 -14.53125 C 2.867188 -15.957031 3.71875 -17.175781 4.78125 -18.1875 C 5.851562 -19.195312 7.039062 -19.96875 8.34375 -20.5 C 9.644531 -21.03125 10.976562 -21.296875 12.34375 -21.296875 C 14.25 -21.296875 15.84375 -20.914062 17.125 -20.15625 C 18.414062 -19.40625 19.390625 -18.453125 20.046875 -17.296875 C 20.710938 -16.148438 21.046875 -14.960938 21.046875 -13.734375 L 5.125 -13.734375 C 5.09375 -13.503906 5.070312 -13.273438 5.0625 -13.046875 C 5.050781 -12.828125 5.046875 -12.609375 5.046875 -12.390625 C 5.046875 -10.566406 5.398438 -8.941406 6.109375 -7.515625 C 6.828125 -6.085938 7.835938 -4.972656 9.140625 -4.171875 C 10.441406 -3.378906 11.972656 -2.984375 13.734375 -2.984375 C 15.304688 -2.984375 16.691406 -3.289062 17.890625 -3.90625 C 19.097656 -4.519531 20.132812 -5.316406 21 -6.296875 L 21.375 -5.875 C 20.726562 -4.894531 19.929688 -3.921875 18.984375 -2.953125 C 18.035156 -1.992188 16.914062 -1.191406 15.625 -0.546875 C 14.332031 0.0976562 12.875 0.421875 11.25 0.421875 Z M 5.171875 -14.328125 L 16.796875 -14.328125 C 16.628906 -15.472656 16.269531 -16.515625 15.71875 -17.453125 C 15.175781 -18.390625 14.503906 -19.132812 13.703125 -19.6875 C 12.910156 -20.25 12.023438 -20.53125 11.046875 -20.53125 C 9.867188 -20.5625 8.875 -20.28125 8.0625 -19.6875 C 7.25 -19.101562 6.601562 -18.332031 6.125 -17.375 C 5.65625 -16.425781 5.335938 -15.410156 5.171875 -14.328125 Z M 5.171875 -14.328125 "/></g></g></g><g fill="#f0f0f0" fill-opacity="1"><g transform="translate(241.490237, 197.999987)"><g><path d="M 1.171875 0 L 1.171875 -0.59375 C 1.867188 -0.8125 2.320312 -1.273438 2.53125 -1.984375 C 2.75 -2.703125 2.859375 -3.816406 2.859375 -5.328125 L 2.859375 -15 C 2.859375 -16.226562 2.707031 -17.035156 2.40625 -17.421875 C 2.113281 -17.816406 1.703125 -18.128906 1.171875 -18.359375 L 1.171875 -18.9375 L 6.71875 -21.375 L 7.140625 -21.046875 L 7.140625 -15.953125 C 7.785156 -17.472656 8.804688 -18.707031 10.203125 -19.65625 C 10.984375 -20.21875 11.785156 -20.628906 12.609375 -20.890625 C 13.441406 -21.160156 14.363281 -21.296875 15.375 -21.296875 C 16.101562 -21.296875 16.734375 -21.195312 17.265625 -21 C 17.796875 -20.800781 18.0625 -20.476562 18.0625 -20.03125 C 18.0625 -19.726562 17.957031 -19.359375 17.75 -18.921875 C 17.539062 -18.484375 17.222656 -18.101562 16.796875 -17.78125 C 16.378906 -17.457031 15.847656 -17.296875 15.203125 -17.296875 C 14.617188 -17.296875 13.898438 -17.398438 13.046875 -17.609375 C 12.191406 -17.828125 11.09375 -18.144531 9.75 -18.5625 C 9.21875 -18.113281 8.660156 -17.453125 8.078125 -16.578125 C 7.503906 -15.710938 7.191406 -14.75 7.140625 -13.6875 L 7.140625 -5.328125 C 7.140625 -3.816406 7.242188 -2.703125 7.453125 -1.984375 C 7.660156 -1.273438 8.113281 -0.8125 8.8125 -0.59375 L 8.8125 0 Z M 1.171875 0 "/></g></g></g><g fill="#f0f0f0" fill-opacity="1"><g transform="translate(262.32223, 197.999987)"><g><path d="M 2.484375 -16.09375 C 1.890625 -17.488281 1.359375 -18.507812 0.890625 -19.15625 C 0.429688 -19.800781 -0.03125 -20.21875 -0.5 -20.40625 L -0.5 -21 L 6.671875 -21 L 6.671875 -20.40625 C 5.972656 -20.1875 5.710938 -19.757812 5.890625 -19.125 C 6.078125 -18.5 6.476562 -17.488281 7.09375 -16.09375 L 12.09375 -4.28125 L 16.625 -16 C 17.164062 -17.425781 17.367188 -18.472656 17.234375 -19.140625 C 17.109375 -19.816406 16.679688 -20.238281 15.953125 -20.40625 L 15.953125 -21 L 20.453125 -21 L 20.453125 -20.40625 C 19.835938 -20.21875 19.296875 -19.789062 18.828125 -19.125 C 18.367188 -18.46875 17.859375 -17.425781 17.296875 -16 L 11.171875 0 L 9.203125 0 Z M 2.484375 -16.09375 "/></g></g></g><g fill="#f0f0f0" fill-opacity="1"><g transform="translate(284.288224, 197.999987)"><g><path d="M 1.171875 0 L 1.171875 -0.59375 C 1.867188 -0.8125 2.320312 -1.273438 2.53125 -1.984375 C 2.75 -2.703125 2.859375 -3.816406 2.859375 -5.328125 L 2.859375 -15 C 2.859375 -16.226562 2.707031 -17.035156 2.40625 -17.421875 C 2.113281 -17.816406 1.703125 -18.128906 1.171875 -18.359375 L 1.171875 -18.9375 L 6.71875 -21.375 L 7.140625 -21.046875 L 7.140625 -5.328125 C 7.140625 -3.816406 7.242188 -2.703125 7.453125 -1.984375 C 7.660156 -1.273438 8.113281 -0.8125 8.8125 -0.59375 L 8.8125 0 Z M 1.890625 -25.65625 C 1.890625 -26.46875 2.164062 -27.15625 2.71875 -27.71875 C 3.28125 -28.28125 3.957031 -28.5625 4.75 -28.5625 C 5.582031 -28.5625 6.265625 -28.28125 6.796875 -27.71875 C 7.335938 -27.15625 7.609375 -26.46875 7.609375 -25.65625 C 7.609375 -24.875 7.332031 -24.203125 6.78125 -23.640625 C 6.238281 -23.085938 5.5625 -22.8125 4.75 -22.8125 C 3.957031 -22.8125 3.28125 -23.085938 2.71875 -23.640625 C 2.164062 -24.203125 1.890625 -24.875 1.890625 -25.65625 Z M 1.890625 -25.65625 "/></g></g></g><g fill="#f0f0f0" fill-opacity="1"><g transform="translate(296.258228, 197.999987)"><g><path d="M 11.25 0.421875 C 9.539062 0.421875 7.921875 0.03125 6.390625 -0.75 C 4.867188 -1.539062 3.640625 -2.691406 2.703125 -4.203125 C 1.765625 -5.710938 1.296875 -7.546875 1.296875 -9.703125 C 1.296875 -11.460938 1.601562 -13.054688 2.21875 -14.484375 C 2.84375 -15.910156 3.691406 -17.128906 4.765625 -18.140625 C 5.847656 -19.148438 7.066406 -19.925781 8.421875 -20.46875 C 9.773438 -21.019531 11.179688 -21.296875 12.640625 -21.296875 C 14.878906 -21.296875 16.695312 -21.039062 18.09375 -20.53125 C 19.5 -20.03125 20.203125 -19.488281 20.203125 -18.90625 C 20.203125 -18.476562 20.046875 -18.054688 19.734375 -17.640625 C 19.429688 -17.222656 19.0625 -16.875 18.625 -16.59375 C 18.1875 -16.3125 17.757812 -16.171875 17.34375 -16.171875 C 16.757812 -16.171875 15.96875 -16.519531 14.96875 -17.21875 C 13.976562 -17.914062 12.671875 -19.035156 11.046875 -20.578125 C 9.835938 -20.410156 8.78125 -19.925781 7.875 -19.125 C 6.96875 -18.332031 6.269531 -17.347656 5.78125 -16.171875 C 5.289062 -14.992188 5.046875 -13.734375 5.046875 -12.390625 C 5.046875 -10.566406 5.398438 -8.941406 6.109375 -7.515625 C 6.828125 -6.085938 7.835938 -4.972656 9.140625 -4.171875 C 10.441406 -3.378906 11.972656 -2.984375 13.734375 -2.984375 C 15.304688 -2.984375 16.691406 -3.289062 17.890625 -3.90625 C 19.097656 -4.519531 20.132812 -5.316406 21 -6.296875 L 21.375 -5.875 C 20.726562 -4.894531 19.929688 -3.921875 18.984375 -2.953125 C 18.035156 -1.992188 16.914062 -1.191406 15.625 -0.546875 C 14.332031 0.0976562 12.875 0.421875 11.25 0.421875 Z M 11.25 0.421875 "/></g></g></g><g fill="#f0f0f0" fill-opacity="1"><g transform="translate(320.324225, 197.999987)"><g><path d="M 11.25 0.421875 C 10.070312 0.421875 8.898438 0.210938 7.734375 -0.203125 C 6.578125 -0.628906 5.507812 -1.257812 4.53125 -2.09375 C 3.550781 -2.9375 2.765625 -3.988281 2.171875 -5.25 C 1.585938 -6.507812 1.296875 -7.992188 1.296875 -9.703125 C 1.296875 -11.492188 1.609375 -13.101562 2.234375 -14.53125 C 2.867188 -15.957031 3.71875 -17.175781 4.78125 -18.1875 C 5.851562 -19.195312 7.039062 -19.96875 8.34375 -20.5 C 9.644531 -21.03125 10.976562 -21.296875 12.34375 -21.296875 C 14.25 -21.296875 15.84375 -20.914062 17.125 -20.15625 C 18.414062 -19.40625 19.390625 -18.453125 20.046875 -17.296875 C 20.710938 -16.148438 21.046875 -14.960938 21.046875 -13.734375 L 5.125 -13.734375 C 5.09375 -13.503906 5.070312 -13.273438 5.0625 -13.046875 C 5.050781 -12.828125 5.046875 -12.609375 5.046875 -12.390625 C 5.046875 -10.566406 5.398438 -8.941406 6.109375 -7.515625 C 6.828125 -6.085938 7.835938 -4.972656 9.140625 -4.171875 C 10.441406 -3.378906 11.972656 -2.984375 13.734375 -2.984375 C 15.304688 -2.984375 16.691406 -3.289062 17.890625 -3.90625 C 19.097656 -4.519531 20.132812 -5.316406 21 -6.296875 L 21.375 -5.875 C 20.726562 -4.894531 19.929688 -3.921875 18.984375 -2.953125 C 18.035156 -1.992188 16.914062 -1.191406 15.625 -0.546875 C 14.332031 0.0976562 12.875 0.421875 11.25 0.421875 Z M 5.171875 -14.328125 L 16.796875 -14.328125 C 16.628906 -15.472656 16.269531 -16.515625 15.71875 -17.453125 C 15.175781 -18.390625 14.503906 -19.132812 13.703125 -19.6875 C 12.910156 -20.25 12.023438 -20.53125 11.046875 -20.53125 C 9.867188 -20.5625 8.875 -20.28125 8.0625 -19.6875 C 7.25 -19.101562 6.601562 -18.332031 6.125 -17.375 C 5.65625 -16.425781 5.335938 -15.410156 5.171875 -14.328125 Z M 5.171875 -14.328125 "/></g></g></g><path stroke-linecap="butt" transform="matrix(0.75, 0, 0, 0.75, 159.071142, 164.774989)" fill="none" stroke-linejoin="miter" d="M 6.139519 47.388559 C 4.384311 47.388559 3.024936 46.810434 2.061394 45.664601 C 1.103061 44.508351 0.618686 43.096892 0.618686 41.435434 C 0.618686 39.737517 1.019727 38.013559 1.816602 36.253142 C 2.618686 34.487517 3.681186 32.7896 4.993686 31.154183 C 6.306186 29.523975 7.743686 28.07085 9.306186 26.794808 C 10.873895 25.513558 12.45202 24.497933 14.040562 23.747933 C 15.623895 22.992724 17.071812 22.612516 18.384312 22.612516 C 19.790562 22.612516 20.847854 22.935433 21.550979 23.576058 C 22.254104 24.216683 22.73327 24.961474 22.993687 25.810433 C 23.248895 26.654183 23.379104 27.430225 23.379104 28.13335 C 23.379104 30.247933 22.936395 32.268767 22.056187 34.190642 C 21.17077 36.107308 20.040562 37.872934 18.665562 39.487517 C 17.290562 41.107309 15.811395 42.497934 14.228062 43.669809 C 12.649936 44.836476 11.134311 45.747934 9.691603 46.404184 C 8.254103 47.060434 7.071811 47.388559 6.139519 47.388559 Z M 5.425978 39.372934 C 5.425978 40.169809 5.524936 41.00835 5.728061 41.888559 C 5.941603 42.763559 6.353061 43.508351 6.962436 44.117726 C 7.571811 44.727101 8.446811 45.029184 9.597853 45.029184 C 10.722853 45.029184 11.743686 44.680226 12.665561 43.977101 C 13.597853 43.273976 14.431187 42.357309 15.165562 41.221892 C 15.905145 40.081267 16.524937 38.841684 17.01452 37.497934 C 17.51452 36.154183 17.899937 34.815642 18.165562 33.487517 C 18.436395 32.159392 18.571812 30.966683 18.571812 29.9146 C 18.571812 28.216683 18.212437 26.987516 17.493687 26.221891 C 16.774937 25.451058 15.790562 25.060433 14.540562 25.060433 C 13.196811 25.060433 11.962436 25.518766 10.837436 26.435433 C 9.722853 27.346891 8.754103 28.523975 7.931186 29.961475 C 7.118686 31.398975 6.498894 32.951058 6.071811 34.612517 C 5.639519 36.279183 5.425978 37.862517 5.425978 39.372934 Z M 10.123895 56.98231 C 9.769728 56.98231 9.410353 56.935435 9.04577 56.831268 C 8.675978 56.737518 8.493686 56.48231 8.493686 56.070851 C 8.493686 55.591685 8.707228 55.07606 9.129103 54.51356 C 9.540561 53.95106 10.061395 53.461476 10.686395 53.04481 C 11.300978 52.633351 11.931186 52.425018 12.571811 52.425018 C 13.410353 52.425018 14.238478 52.497935 15.056187 52.63856 C 15.868687 52.784393 16.915562 52.91981 18.196812 53.04481 C 18.644728 52.820851 19.123895 52.508351 19.63952 52.10731 C 20.144729 51.711476 20.712437 51.102101 21.337437 50.279184 C 21.962437 49.466684 22.665562 48.326059 23.446812 46.857309 C 24.228062 45.383351 25.149937 43.461476 26.212437 41.091684 L 33.702021 24.148974 L 29.858271 24.148974 L 30.196813 23.482308 L 33.983271 23.482308 C 35.139521 21.112516 36.649938 18.997932 38.51973 17.128141 C 40.39473 15.25314 42.441605 13.654182 44.660355 12.326057 C 46.884314 10.997932 49.118689 9.987515 51.363481 9.300015 C 53.603064 8.612515 55.649939 8.268765 57.504106 8.268765 C 58.660356 8.268765 59.603065 8.34689 60.33744 8.50314 C 61.071815 8.65939 61.441606 8.935432 61.441606 9.326057 C 61.441606 9.768765 61.233273 10.289598 60.816606 10.883348 C 60.405148 11.477099 59.816606 11.987515 59.061398 12.419807 C 58.311398 12.84689 57.441606 13.060432 56.446814 13.060432 C 55.457231 13.060432 54.342647 12.904182 53.108272 12.581265 C 51.879106 12.263557 50.259314 11.794807 48.243689 11.185432 C 47.571814 11.445849 46.764522 11.925015 45.816605 12.62814 C 44.873897 13.331265 43.905147 14.326057 42.910355 15.607307 C 41.920772 16.888557 40.972855 18.534391 40.077022 20.550016 L 38.785355 23.482308 L 43.967647 23.482308 L 43.629105 24.148974 L 38.493688 24.148974 L 32.634313 37.357309 C 31.837438 39.175017 30.785354 41.013559 29.472854 42.872934 C 28.160354 44.727101 26.691604 46.497934 25.077021 48.195851 C 23.467645 49.888559 21.785354 51.393768 20.024937 52.706268 C 18.259312 54.018768 16.530145 55.060435 14.832228 55.82606 C 13.13952 56.596893 11.566603 56.98231 10.123895 56.98231 Z M 10.123895 56.98231 " stroke="#f0f0f0" stroke-width="0.72" stroke-opacity="1" stroke-miterlimit="4"/><g fill="#f0f0f0" fill-opacity="1"><g transform="translate(159.071142, 200.024987)"><g><path d="M 4.609375 0.28125 C 3.285156 0.28125 2.265625 -0.144531 1.546875 -1 C 0.828125 -1.863281 0.46875 -2.921875 0.46875 -4.171875 C 0.46875 -5.441406 0.765625 -6.738281 1.359375 -8.0625 C 1.960938 -9.382812 2.753906 -10.65625 3.734375 -11.875 C 4.722656 -13.101562 5.804688 -14.195312 6.984375 -15.15625 C 8.160156 -16.113281 9.34375 -16.875 10.53125 -17.4375 C 11.71875 -18 12.800781 -18.28125 13.78125 -18.28125 C 14.84375 -18.28125 15.632812 -18.039062 16.15625 -17.5625 C 16.6875 -17.082031 17.046875 -16.523438 17.234375 -15.890625 C 17.429688 -15.253906 17.53125 -14.671875 17.53125 -14.140625 C 17.53125 -12.554688 17.195312 -11.046875 16.53125 -9.609375 C 15.875 -8.171875 15.03125 -6.84375 14 -5.625 C 12.96875 -4.414062 11.859375 -3.375 10.671875 -2.5 C 9.484375 -1.625 8.347656 -0.941406 7.265625 -0.453125 C 6.191406 0.0351562 5.304688 0.28125 4.609375 0.28125 Z M 4.0625 -5.71875 C 4.0625 -5.125 4.140625 -4.492188 4.296875 -3.828125 C 4.453125 -3.171875 4.757812 -2.613281 5.21875 -2.15625 C 5.675781 -1.695312 6.335938 -1.46875 7.203125 -1.46875 C 8.035156 -1.46875 8.800781 -1.734375 9.5 -2.265625 C 10.195312 -2.796875 10.820312 -3.484375 11.375 -4.328125 C 11.925781 -5.179688 12.382812 -6.113281 12.75 -7.125 C 13.125 -8.132812 13.414062 -9.132812 13.625 -10.125 C 13.832031 -11.125 13.9375 -12.019531 13.9375 -12.8125 C 13.9375 -14.082031 13.664062 -15.003906 13.125 -15.578125 C 12.582031 -16.160156 11.84375 -16.453125 10.90625 -16.453125 C 9.894531 -16.453125 8.96875 -16.109375 8.125 -15.421875 C 7.289062 -14.742188 6.566406 -13.863281 5.953125 -12.78125 C 5.347656 -11.695312 4.878906 -10.53125 4.546875 -9.28125 C 4.222656 -8.039062 4.0625 -6.851562 4.0625 -5.71875 Z M 4.0625 -5.71875 "/></g></g></g><g fill="#f0f0f0" fill-opacity="1"><g transform="translate(176.999181, 200.024987)"><g><path d="M -10.328125 7.484375 C -10.597656 7.484375 -10.867188 7.445312 -11.140625 7.375 C -11.421875 7.300781 -11.5625 7.109375 -11.5625 6.796875 C -11.5625 6.441406 -11.40625 6.050781 -11.09375 5.625 C -10.78125 5.207031 -10.390625 4.84375 -9.921875 4.53125 C -9.453125 4.21875 -8.976562 4.0625 -8.5 4.0625 C -7.875 4.0625 -7.253906 4.113281 -6.640625 4.21875 C -6.023438 4.332031 -5.238281 4.4375 -4.28125 4.53125 C -3.945312 4.363281 -3.585938 4.128906 -3.203125 3.828125 C -2.816406 3.535156 -2.390625 3.082031 -1.921875 2.46875 C -1.453125 1.851562 -0.921875 0.992188 -0.328125 -0.109375 C 0.253906 -1.210938 0.941406 -2.648438 1.734375 -4.421875 L 7.34375 -17.140625 L 4.46875 -17.140625 L 4.71875 -17.640625 L 7.5625 -17.640625 C 8.425781 -19.410156 9.554688 -21 10.953125 -22.40625 C 12.359375 -23.8125 13.894531 -25.007812 15.5625 -26 C 17.238281 -27 18.914062 -27.753906 20.59375 -28.265625 C 22.269531 -28.785156 23.804688 -29.046875 25.203125 -29.046875 C 26.066406 -29.046875 26.773438 -28.984375 27.328125 -28.859375 C 27.878906 -28.742188 28.15625 -28.546875 28.15625 -28.265625 C 28.15625 -27.921875 28 -27.523438 27.6875 -27.078125 C 27.375 -26.640625 26.9375 -26.257812 26.375 -25.9375 C 25.8125 -25.613281 25.15625 -25.453125 24.40625 -25.453125 C 23.664062 -25.453125 22.832031 -25.570312 21.90625 -25.8125 C 20.976562 -26.050781 19.757812 -26.398438 18.25 -26.859375 C 17.75 -26.660156 17.144531 -26.296875 16.4375 -25.765625 C 15.726562 -25.242188 15 -24.503906 14.25 -23.546875 C 13.507812 -22.585938 12.800781 -21.351562 12.125 -19.84375 L 11.15625 -17.640625 L 15.046875 -17.640625 L 14.796875 -17.140625 L 10.9375 -17.140625 L 6.546875 -7.234375 C 5.953125 -5.867188 5.160156 -4.488281 4.171875 -3.09375 C 3.191406 -1.707031 2.09375 -0.378906 0.875 0.890625 C -0.332031 2.171875 -1.59375 3.300781 -2.90625 4.28125 C -4.226562 5.269531 -5.523438 6.050781 -6.796875 6.625 C -8.078125 7.195312 -9.253906 7.484375 -10.328125 7.484375 Z M -10.328125 7.484375 "/></g></g></g></svg>